<?xml version="1.0" standalone="no"?>
<!DOCTYPE svg PUBLIC "-//W3C//DTD SVG 20010904//EN"
 "http://www.w3.org/TR/2001/REC-SVG-20010904/DTD/svg10.dtd">
<svg version="1.0" xmlns="http://www.w3.org/2000/svg"
 width="700.000000pt" height="700.000000pt" viewBox="0 0 700.000000 700.000000"
 preserveAspectRatio="xMidYMid meet">
<metadata>
Created by potrace 1.14, written by Peter Selinger 2001-2017
</metadata>
<g transform="translate(0.000000,700.000000) scale(0.100000,-0.100000)"
fill="#000000" stroke="none">
<path d="M2383 6586 c-107 -34 -196 -116 -234 -215 l-22 -56 -2 -2387 c-1
-2165 0 -2387 14 -2390 9 -2 169 -4 356 -3 l340 0 -1 2390 -1 2390 -22 56
c-24 64 -86 139 -141 174 -77 49 -205 67 -287 41z"/>
<path d="M5463 6260 c-124 -25 -234 -131 -267 -257 -10 -38 -13 -521 -12
-2258 l1 -2210 345 -1 c190 0 350 1 356 3 8 3 10 631 9 2226 -1 2145 -2 2224
-20 2267 -28 67 -44 90 -98 142 -78 75 -204 110 -314 88z"/>
<path d="M4403 5712 c-113 -40 -196 -132 -228 -252 -17 -63 -18 -3917 -1
-3922 10 -4 610 -3 677 1 l26 1 -2 1953 c-2 2166 4 1984 -66 2087 -86 125
-262 182 -406 132z"/>
<path d="M1380 5265 c-126 -33 -228 -129 -261 -246 -10 -34 -13 -421 -14
-1749 -1 -938 0 -1712 2 -1720 4 -13 51 -15 358 -15 l354 0 -1 1705 c-1 938
-6 1725 -10 1749 -24 134 -142 253 -271 276 -67 11 -113 11 -157 0z"/>
<path d="M3420 4265 c-137 -35 -238 -138 -268 -272 -5 -21 -8 -582 -8 -1248
l1 -1210 340 0 c187 -1 347 1 356 3 14 3 16 115 15 1230 l-1 1227 -26 58 c-72
165 -245 254 -409 212z"/>
<path d="M4272 1189 c-191 -35 -278 -197 -178 -332 30 -41 98 -81 218 -127 65
-25 114 -50 123 -63 22 -32 19 -74 -9 -101 -19 -20 -32 -24 -77 -21 -76 3 -73
2 -103 30 -17 15 -26 34 -26 54 0 28 -2 29 -52 33 -29 1 -72 2 -95 0 -40 -3
-43 -5 -43 -31 0 -50 51 -133 103 -168 67 -45 117 -57 227 -57 78 0 105 4 148
23 92 41 140 122 127 214 -16 107 -70 158 -235 222 -135 52 -163 73 -158 117
5 51 52 75 134 69 28 -1 74 -48 74 -75 0 -21 4 -22 93 -21 l92 0 -3 33 c-11
115 -115 196 -262 205 -30 2 -74 0 -98 -4z"/>
<path d="M4983 1189 c-130 -24 -226 -126 -253 -269 -6 -30 -10 -93 -9 -140 4
-183 61 -287 189 -348 48 -23 68 -26 155 -27 115 0 186 18 258 66 l47 31 0
159 c0 120 -3 159 -12 160 -7 1 -80 2 -161 3 l-148 1 3 -65 3 -64 60 -1 c56 0
60 -2 65 -25 3 -14 3 -42 0 -63 -6 -47 -39 -65 -111 -61 -108 5 -149 62 -157
214 -6 134 10 204 58 252 33 33 44 38 83 38 67 0 94 -16 120 -72 l22 -48 87 0
c77 0 86 2 83 18 -25 129 -85 203 -191 231 -56 15 -140 19 -191 10z"/>
<path d="M1012 1181 c-4 -3 -7 -177 -7 -386 l0 -380 190 -2 c211 -1 274 9 333
54 59 45 87 135 69 225 -8 39 -74 108 -104 108 -10 0 -3 9 17 23 94 63 104
203 21 286 -58 58 -127 73 -339 75 -94 1 -176 0 -180 -3z m343 -155 c39 -17
51 -46 41 -102 -9 -45 -44 -61 -138 -62 l-68 -1 0 89 0 90 65 0 c36 0 81 -6
100 -14z m34 -310 c29 -26 36 -76 17 -114 -19 -37 -62 -51 -153 -49 l-63 2 0
93 0 94 89 -4 c70 -2 93 -7 110 -22z"/>
<path d="M5479 1165 c-3 -61 -4 -732 -1 -742 3 -9 31 -13 93 -13 64 0 89 4 90
13 1 6 1 76 1 154 l1 141 101 1 c56 0 124 0 151 0 l50 1 0 70 c0 39 -4 70 -10
71 -5 0 -73 2 -150 2 l-140 2 -2 87 -2 88 166 2 167 3 0 68 c1 38 -3 68 -9 68
-5 1 -121 2 -257 3 -243 2 -248 1 -249 -19z"/>
<path d="M2318 1058 l-3 -73 -32 1 c-35 1 -35 2 -35 -76 0 -16 1 -34 1 -40 1
-5 17 -10 36 -10 l35 0 0 -160 c0 -88 0 -162 0 -165 -1 -17 34 -81 52 -96 32
-28 96 -42 162 -35 33 3 61 8 63 10 5 4 6 48 4 99 -1 24 -5 27 -35 27 -61 0
-66 14 -66 176 l0 144 44 0 c48 0 52 5 50 60 -3 72 -1 69 -49 66 l-45 -2 0 73
0 73 -90 0 -89 0 -3 -72z"/>
<path d="M2697 1123 c-2 -5 -3 -36 -2 -70 1 -57 -1 -63 -19 -64 -12 -1 -28 -2
-36 -3 -11 -1 -16 -17 -18 -63 l-3 -62 38 -3 38 -3 0 -160 c1 -88 5 -174 9
-192 12 -51 65 -90 131 -98 31 -4 75 -4 98 1 l41 9 2 63 1 62 -37 0 c-60 0
-65 13 -66 177 l-1 143 49 0 49 0 -3 63 -3 62 -35 1 c-19 1 -40 2 -46 2 -7 1
-11 28 -10 72 l1 70 -87 0 c-48 0 -89 -3 -91 -7z"/>
<path d="M1893 989 c-131 -24 -205 -123 -209 -279 -4 -141 44 -227 156 -282
96 -47 275 -22 340 47 l23 24 -41 50 c-36 46 -41 49 -53 34 -35 -41 -126 -55
-184 -27 -29 13 -71 71 -60 82 2 2 82 5 177 6 l173 1 -2 80 c-1 91 -23 153
-69 199 -57 57 -156 83 -251 65z m124 -152 c20 -20 33 -75 20 -80 -7 -2 -48
-4 -92 -3 -74 1 -80 3 -77 21 5 30 31 65 55 75 27 11 77 4 94 -13z"/>
<path d="M3240 990 c-148 -29 -224 -142 -216 -320 2 -36 10 -81 19 -101 22
-53 81 -114 134 -139 102 -48 253 -32 330 35 l36 31 -29 41 c-37 53 -49 58
-85 32 -19 -13 -52 -23 -88 -26 -54 -5 -60 -4 -94 27 -20 18 -37 41 -37 51 0
22 -13 20 204 21 l149 0 -5 82 c-9 133 -51 206 -143 247 -46 20 -124 29 -175
19z m121 -157 c16 -17 23 -41 20 -69 -1 -13 -171 -14 -171 -1 0 4 0 14 0 23 0
8 13 28 29 44 23 24 35 28 66 25 21 -2 46 -12 56 -22z"/>
<path d="M3884 985 c-17 -7 -40 -25 -52 -40 -12 -15 -23 -25 -23 -21 -1 3 -3
15 -4 26 -1 11 -3 24 -4 28 0 5 -38 8 -84 8 l-84 0 0 -288 0 -288 89 0 88 0 1
38 c0 20 1 103 1 184 0 142 1 147 24 169 19 18 37 23 82 24 l57 2 5 61 c7 86
1 105 -36 108 -16 1 -43 -4 -60 -11z"/>
</g>
</svg>
